HIERARCHY
ROOT Hips
{
	OFFSET -14.64140 90.27770 -84.91600
	CHANNELS 6 Xposition Yposition Zposition Zrotation Xrotation Yrotation
	JOINT Spine
	{
		OFFSET 0.00000 13.20850 -1.60436
		CHANNELS 3 Zrotation Xrotation Yrotation
		JOINT Spine1
		{
			OFFSET 0.00000 8.61716 0.00000
			CHANNELS 3 Zrotation Xrotation Yrotation
			JOINT Spine2
			{
				OFFSET 0.00000 8.61717 0.00000
				CHANNELS 3 Zrotation Xrotation Yrotation
				JOINT Spine3
				{
					OFFSET 0.00000 8.61717 0.00000
					CHANNELS 3 Zrotation Xrotation Yrotation
					JOINT Neck
					{
						OFFSET 0.00000 11.07920 1.10792
						CHANNELS 3 Zrotation Xrotation Yrotation
						JOINT Neck1
						{
							OFFSET 0.00000 7.08032 0.00000
							CHANNELS 3 Zrotation Xrotation Yrotation
							JOINT Head
							{
								OFFSET 0.00000 7.08031 0.00000
								CHANNELS 3 Zrotation Xrotation Yrotation
								End site
								{
									OFFSET 0.00000 0.00000 0.00000
								}
							}
						}
					}
					JOINT RightShoulder
					{
						OFFSET -0.01000 7.91373 5.19711
						CHANNELS 3 Zrotation Xrotation Yrotation
						JOINT RightArm
						{
							OFFSET -18.41580 0.00000 0.00000
							CHANNELS 3 Zrotation Xrotation Yrotation
							JOINT RightForeArm
							{
								OFFSET -29.11090 0.00000 0.00000
								CHANNELS 3 Zrotation Xrotation Yrotation
								JOINT RightHand
								{
									OFFSET -24.65040 0.00000 0.00000
									CHANNELS 3 Zrotation Xrotation Yrotation
									JOINT RightHandThumb1
									{
										OFFSET -5.35114 -0.85590 3.97906
										CHANNELS 3 Zrotation Xrotation Yrotation
										JOINT RightHandThumb2
										{
											OFFSET -4.52789 0.00000 0.00000
											CHANNELS 3 Zrotation Xrotation Yrotation
											JOINT RightHandThumb3
											{
												OFFSET -2.46976 0.00000 0.00000
												CHANNELS 3 Zrotation Xrotation Yrotation
												End site
												{
													OFFSET 0.00000 0.00000 0.00000
												}
											}
										}
									}
									JOINT RightHandIndex1
									{
										OFFSET -14.26970 0.00000 2.88139
										CHANNELS 3 Zrotation Xrotation Yrotation
										JOINT RightHandIndex2
										{
											OFFSET -5.48836 0.00000 0.00000
											CHANNELS 3 Zrotation Xrotation Yrotation
											JOINT RightHandIndex3
											{
												OFFSET -3.01859 0.00000 0.00000
												CHANNELS 3 Zrotation Xrotation Yrotation
												End site
												{
													OFFSET 0.00000 0.00000 0.00000
												}
											}
										}
									}
									JOINT RightHandMiddle1
									{
										OFFSET -14.26970 0.00000 -0.09147
										CHANNELS 3 Zrotation Xrotation Yrotation
										JOINT RightHandMiddle2
										{
											OFFSET -6.17441 0.00000 0.00000
											CHANNELS 3 Zrotation Xrotation Yrotation
											JOINT RightHandMiddle3
											{
												OFFSET -3.56743 0.00000 0.00000
												CHANNELS 3 Zrotation Xrotation Yrotation
												End site
												{
													OFFSET 0.00000 0.00000 0.00000
												}
											}
										}
									}
									JOINT RightHandRing1
									{
										OFFSET -12.69180 0.00000 -3.06433
										CHANNELS 3 Zrotation Xrotation Yrotation
										JOINT RightHandRing2
										{
											OFFSET -5.62556 0.00000 0.00000
											CHANNELS 3 Zrotation Xrotation Yrotation
											JOINT RightHandRing3
											{
												OFFSET -3.56744 0.00000 0.00000
												CHANNELS 3 Zrotation Xrotation Yrotation
												End site
												{
													OFFSET 0.00000 0.00000 0.00000
												}
											}
										}
									}
									JOINT RightHandPinky1
									{
										OFFSET -11.11390 0.00000 -6.03719
										CHANNELS 3 Zrotation Xrotation Yrotation
										JOINT RightHandPinky2
										{
											OFFSET -4.52789 0.00000 0.00000
											CHANNELS 3 Zrotation Xrotation Yrotation
											JOINT RightHandPinky3
											{
												OFFSET -2.46976 0.00000 0.00000
												CHANNELS 3 Zrotation Xrotation Yrotation
												End site
												{
													OFFSET 0.00000 0.00000 0.00000
												}
											}
										}
									}
								}
							}
						}
					}
					JOINT LeftShoulder
					{
						OFFSET 0.01000 7.91373 5.19711
						CHANNELS 3 Zrotation Xrotation Yrotation
						JOINT LeftArm
						{
							OFFSET 18.41580 0.00000 0.00000
							CHANNELS 3 Zrotation Xrotation Yrotation
							JOINT LeftForeArm
							{
								OFFSET 29.11090 0.00000 0.00000
								CHANNELS 3 Zrotation Xrotation Yrotation
								JOINT LeftHand
								{
									OFFSET 24.65040 0.00000 0.00000
									CHANNELS 3 Zrotation Xrotation Yrotation
									JOINT LeftHandThumb1
									{
										OFFSET 5.35114 -0.85590 3.97906
										CHANNELS 3 Zrotation Xrotation Yrotation
										JOINT LeftHandThumb2
										{
											OFFSET 4.52789 0.00000 0.00000
											CHANNELS 3 Zrotation Xrotation Yrotation
											JOINT LeftHandThumb3
											{
												OFFSET 2.46977 0.00000 0.00000
												CHANNELS 3 Zrotation Xrotation Yrotation
												End site
												{
													OFFSET 0.00000 0.00000 0.00000
												}
											}
										}
									}
									JOINT LeftHandIndex1
									{
										OFFSET 14.26970 0.00000 2.88139
										CHANNELS 3 Zrotation Xrotation Yrotation
										JOINT LeftHandIndex2
										{
											OFFSET 5.48836 0.00000 0.00000
											CHANNELS 3 Zrotation Xrotation Yrotation
											JOINT LeftHandIndex3
											{
												OFFSET 3.01859 0.00000 0.00000
												CHANNELS 3 Zrotation Xrotation Yrotation
												End site
												{
													OFFSET 0.00000 0.00000 0.00000
												}
											}
										}
									}
									JOINT LeftHandMiddle1
									{
										OFFSET 14.26970 0.00000 -0.09147
										CHANNELS 3 Zrotation Xrotation Yrotation
										JOINT LeftHandMiddle2
										{
											OFFSET 6.17440 0.00000 0.00000
											CHANNELS 3 Zrotation Xrotation Yrotation
											JOINT LeftHandMiddle3
											{
												OFFSET 3.56744 0.00000 0.00000
												CHANNELS 3 Zrotation Xrotation Yrotation
												End site
												{
													OFFSET 0.00000 0.00000 0.00000
												}
											}
										}
									}
									JOINT LeftHandRing1
									{
										OFFSET 12.69180 0.00000 -3.06433
										CHANNELS 3 Zrotation Xrotation Yrotation
										JOINT LeftHandRing2
										{
											OFFSET 5.62556 0.00000 0.00000
											CHANNELS 3 Zrotation Xrotation Yrotation
											JOINT LeftHandRing3
											{
												OFFSET 3.56744 0.00000 0.00000
												CHANNELS 3 Zrotation Xrotation Yrotation
												End site
												{
													OFFSET 0.00000 0.00000 0.00000
												}
											}
										}
									}
									JOINT LeftHandPinky1
									{
										OFFSET 11.11390 0.00000 -6.03719
										CHANNELS 3 Zrotation Xrotation Yrotation
										JOINT LeftHandPinky2
										{
											OFFSET 4.52789 0.00000 0.00000
											CHANNELS 3 Zrotation Xrotation Yrotation
											JOINT LeftHandPinky3
											{
												OFFSET 2.46976 0.00000 0.00000
												CHANNELS 3 Zrotation Xrotation Yrotation
												End site
												{
													OFFSET 0.00000 0.00000 0.00000
												}
											}
										}
									}
								}
							}
						}
					}
					JOINT pCube4
					{
						OFFSET 0.00000 10.91090 1.10792
						CHANNELS 3 Zrotation Xrotation Yrotation
						End site
						{
							OFFSET 0.00000 0.00000 0.00000
						}
					}
				}
			}
		}
	}
	JOINT RightUpLeg
	{
		OFFSET -9.98441 0.00000 0.00000
		CHANNELS 3 Zrotation Xrotation Yrotation
		JOINT RightLeg
		{
			OFFSET 0.00000 -42.11790 0.00000
			CHANNELS 3 Zrotation Xrotation Yrotation
			JOINT RightFoot
			{
				OFFSET 0.00000 -45.00020 -0.00001
				CHANNELS 3 Zrotation Xrotation Yrotation
				JOINT RightForeFoot
				{
					OFFSET 0.00000 -3.74820 0.00000
					CHANNELS 3 Zrotation Xrotation Yrotation
					JOINT RightToeBase
					{
						OFFSET 0.00000 0.06325 14.43120
						CHANNELS 3 Zrotation Xrotation Yrotation
						End site
						{
							OFFSET 0.00000 0.00000 0.00000
						}
					}
				}
			}
		}
	}
	JOINT LeftUpLeg
	{
		OFFSET 9.98441 0.00000 0.00000
		CHANNELS 3 Zrotation Xrotation Yrotation
		JOINT LeftLeg
		{
			OFFSET 0.00000 -42.11800 0.00000
			CHANNELS 3 Zrotation Xrotation Yrotation
			JOINT LeftFoot
			{
				OFFSET 0.00000 -45.00070 0.00000
				CHANNELS 3 Zrotation Xrotation Yrotation
				JOINT LeftForeFoot
				{
					OFFSET 0.00000 -3.74824 0.00000
					CHANNELS 3 Zrotation Xrotation Yrotation
					JOINT LeftToeBase
					{
						OFFSET 0.00000 0.06325 14.43110
						CHANNELS 3 Zrotation Xrotation Yrotation
						End site
						{
							OFFSET 0.00000 0.00000 0.00000
						}
					}
				}
			}
		}
	}
}
MOTION
Frames: 4
Frame Time: 0.050000
-0.035040163186799825 -0.019248027939621545 -0.032462875582882106 0.044982780280077544 0.013502648814349691 -0.03412524600321414 3.569273254465197 4.631238983926788 -1.8229155637548895 -0.8667735028521267 3.488637094119427 0.3631560960149266 -0.5278957809471577 -0.6289668895006446 -0.3697732513159295 -0.44113604979756266 -0.25905405198081033 -0.5363992498105453 -0.8596132394344175 11.050737082090022 0.4635352167753879 -0.062285057725511316 -1.2527857075547593 1.2781719540712189 -0.015523210411633966 -17.72072181806621 0.08178688144923578 -7.263966551540437 2.988125414874963 -15.9958999499634 76.14826718532593 -0.7477719134885197 6.1783669906802245 7.726066633313665 3.2228925459647084 86.6148726007945 8.973331547210003 -0.18676813388391883 -2.334046568270512 4.576780693601946 -0.13439997322567443 -1.5834840565114583 -0.010388188682401406 0.045053436878588954 -56.230152986061945 0.02736860595192245 0.009005274030162744 -56.25491229388078 -38.78839066641353 -0.0029711639753458733 0.043562127216678195 0.025608285915991645 0.017418259339570336 0.017037156341952287 9.634666639188304e-06 -0.04048454284142836 -0.01711022590838143 -36.71389638894771 9.095192231237283e-05 -0.004020121156259925 0.0014537783607253322 0.01807225574923888 0.014931160006860776 0.04002038900465434 0.04732638096209736 0.03370099832477132 -19.798329988589575 -0.016148046626907286 -0.006268082542283051 -0.009185017000812805 -0.014791047817987214 0.01685354263350645 -0.027185159166292595 -0.0038907533188856235 0.010230424602791287 24.025963061566582 0.02134726587664204 -0.01830186037571555 28.848651620674605 0.014954459920454613 0.013168000601413517 28.83730193902355 0.024364913481404047 -0.03873124360065091 9.525864479220262 2.3441954865979033 13.404759509443274 -68.60838393779537 19.00748264707939 -21.842397656866293 -6.214230086754322 -2.742581361925984 -88.19248451982055 -7.770899512299393 -3.0459857846161467 0.03423623107525811 -0.5003521063499214 0.05542288194426193 -8.103134601183134 0.003954004226959728 0.02612524396235473 44.560037690022334 -0.030405861540531275 -0.0323792102593416 44.58250762113443 12.427243802303186 0.020838100649596486 -0.005025970955280102 0.04097980398597644 -0.0175731456525426 -0.009689074107086965 0.003775597058242262 0.0014563365806961536 -0.016858659049558317 11.147984135959591 -0.02170888083588182 0.02098460489174482 0.03292980308938128 0.03553938817609805 -0.0005715110992383222 0.02277304515356911 0.043919754281891474 -0.0296563529504055 4.727659305347167 0.0008597312916991317 0.0022723968540997903 -0.0036671176409293783 0.012669977192428857 -0.03707775763246062 -0.03587554041301759 8.907170647133391e-05 -0.01998035771966897 -5.566811998769848 -0.012654923057475705 -0.025872530395395867 -6.6847498289639065 -0.027759784939752466 0.00499905195273226 -6.689817404520487 -0.0037230774747017484 0.03284428342113733 -0.002041085108653829 -0.047574459746870634 -0.02510509235002648 8.094242948140517 3.4679572636641325 -19.233630739747586 0.031071808571728927 10.367096524751496 0.05869602231053703 -5.5875254388711495 -15.70521802168955 3.19120736113782 -0.010029137206749512 0.045863056272026824 -0.006519958914475331 0.0027911032754495526 4.697171130075979 0.014443872812556819 12.483348795375724 -8.258053397410686 6.916451915661119 -0.026381506849917427 46.40282848009108 -0.014924501089170927 -4.36886244966807 -14.74864013873657 -3.811762502919764 -0.0033604841125348226 -0.041874718957250624 0.011633430365085021 -0.04153462961733928 -10.723128060802036 0.04770812984112499 
-0.004650076808613438 0.00798656549885454 -0.011019618038595504 -0.040859967571612636 0.011690721801701725 -0.006332951932006297 3.5208022346413115 4.5346658238572255 -1.8005959405314405 -0.8432309550975905 3.5268564393129376 0.3511556698372107 -0.5638671338104969 -0.6356164808509202 -0.40390926222068013 -0.3815218124992588 -0.17614084792858195 -0.5017107320213839 -0.760087565352261 11.162787951499793 0.27553381131320875 -0.030151593566429408 -1.1473525962411457 0.8187565003647375 -0.016231665561649105 -17.45816481046335 0.028317055637372676 -7.245745490847578 2.883903455819526 -15.987685525814479 75.33606495293569 -0.2568478435275384 7.159929833014554 8.28078276634911 3.5252492009301926 86.62419326796366 9.334863569204778 -0.2518616387986311 -2.3820209782389243 4.547373653445009 -0.12289750781714849 -1.634119827898583 -0.012685582442230253 -0.02078240012452158 -56.27938786140338 -0.02118301839949514 0.010805965800497967 -56.242690004863064 -38.73646542518522 0.04018003468889676 0.034490468069783814 0.021597008161026353 0.01907671773361619 -0.00893559517949312 -0.004493920176670399 0.01568365987876758 0.014491939922369287 -36.70367437028592 -0.0335173843679713 0.0024117785150140343 0.012674374366890607 -0.031043426017629543 0.0007608616069786205 -0.024871848928546308 -0.046610764568041585 -0.033282466680887385 -19.77468640129945 -0.0321594501164831 -0.013723307694751719 -0.04222265862492021 -0.02832755033362003 -0.04455628179801442 0.009329711417444009 0.04059673935066646 -0.030732053963826462 24.012891305933014 0.0391618327967766 0.013870179124367218 28.87572804046601 0.028915506868027425 -0.021154677588752165 28.837393310864634 -0.0272261245455505 -0.03850202609585019 9.248769426232567 2.343444119553777 13.356342558918543 -68.23340527310707 20.445530576899845 -21.77199280475404 -5.713931730881838 -1.9574414201839545 -88.61793101303464 -9.057425515900427 -3.1798716777208447 0.29210956618952677 -0.46295174785195226 0.09430827696595052 -8.122920593235419 -0.029381364628230586 0.032972521004330506 44.58511258127017 0.0018056126162810644 0.03533652934679656 44.55712195815471 12.458305595350883 0.003053972641486511 0.009789714187005197 -0.03195470993890522 -0.008464114453301162 -0.044529603216036176 0.03369828103627709 -0.015601357627951843 0.008086631214333994 11.13079673700202 -0.024395889123959135 0.0243956825954402 0.04694825556198977 0.014457649122895863 0.01947113048859166 -0.005838143745305178 0.042009736024229735 0.0282101730235951 4.8050320650803044 -0.025366656973700174 0.026454430966726616 -0.003498851286489981 0.03577761583370134 -0.007823527070840549 -0.012465865407361033 -0.027879978842828352 0.007934884983130167 -5.635886946566185 0.005878474440640897 0.02843089651225312 -6.762033869081389 0.0025831692836056777 -0.04524920065694094 -6.6968545501904115 0.0239433967045595 -0.014610607688560984 -0.04336089543632374 0.017575367728523486 0.016039262221542054 8.035205985144575 3.511344513672825 -19.251255226514797 0.032063686782204524 10.392219839390565 0.015451461304969235 -5.668679768809142 -15.653867098817342 3.1652288417645407 0.006603893471160433 0.025706497802978796 0.04214042291752556 -0.01448109591162764 4.672774082934585 -0.024875155496064144 12.460505808602703 -8.261190164510879 6.880872792148587 0.008332551712569827 46.38882497561321 0.015599098994446225 -4.281410034384457 -14.732727851776731 -3.850800827714874 -0.0126636704541248 0.042068223995319565 0.02158605431597709 -0.013961765934407266 -10.772286765770291 0.01954353709837275 
0.022957173469340314 -0.018683369501789827 0.02909849110052558 0.03448872580033762 -0.0281838163191004 0.047669231897203755 3.400646187598419 4.461204939199165 -1.87100943264886 -0.8506498013459775 3.5189663935482476 0.39711430808222936 -0.5932414432560146 -0.6512824986904858 -0.34886826052973147 -0.34520768876909236 -0.2260890048687831 -0.5662692765272985 -0.6412784429918879 11.257862338176759 0.1521400074828188 0.0031136669932517033 -0.8995819779377289 0.5360632309627568 0.05633420788558361 -17.121796734861626 -0.009933380033415512 -7.250682203509315 2.9560029459888173 -16.014661406008674 74.40972257140288 -0.42950300641211636 8.097554245512912 8.678810663399553 3.640339266413468 87.25699656606535 9.802088305866551 -0.22216653687702098 -2.483748930840311 4.511313484130822 -0.13146267165906564 -1.6084479735291641 0.017449460320185732 -0.010666361165408223 -56.24471728503104 0.03514968036535219 -0.045489376147781535 -56.28406358828905 -38.75546008809218 -0.007454987663180947 0.0003409148528897295 0.037352978547032886 0.00575694775867312 -0.0056088495086410025 0.026987368467732774 0.0016902197820523846 0.017759151263802425 -36.65373729391792 0.029743893593348704 -0.02405969652305653 -0.04056542697717067 -0.03386323383401891 -0.01054693559025219 -0.028363364663279968 -0.00020254101225447086 0.002889327001858814 -19.776895849802393 0.000293995747038852 0.013846529653837657 -0.03782955934676914 -0.014870563622901881 0.0015610995975005738 0.016289893625025677 -0.03838639703317183 -0.011111031869433923 24.012821141515612 0.01860683085840672 0.0048905909933041145 28.898485372820314 0.011942386301032169 -0.045494108095001054 28.87526378968747 0.04413832036742287 0.03292347876335229 9.044300920851805 2.324210003905132 13.380438681425481 -67.95297618494943 21.43853256169785 -21.56231179527556 -5.171358176978782 -1.6780195995639622 -89.1046746476837 -10.174002364840863 -3.3647284360821175 0.5168284603476815 -0.49078844365864904 0.10817913066973578 -8.145163656458218 -0.029325317703142454 0.027025970287779276 44.609652457094484 0.0013180977218104377 -0.01426623752535991 44.61408295367249 12.47263757893802 0.04186424561561715 -0.005086698804273613 0.03464544217732034 0.01539158895043168 0.015470068944033624 -0.021598743459999264 0.012724080528193953 0.030009048222261463 11.090913730995183 -0.026286175137491073 -0.003637070733453954 -0.03671733223741822 0.020622473265504208 -0.008263907946612357 0.004087885760671883 -0.024304426882813705 0.01552361353755054 4.753429230341575 0.015779156133468857 -0.001648424990166292 -0.0137813933151925 0.005344231350160393 -0.03862038980563478 -0.021695953749340417 0.005059689322335379 -0.04722842274980542 -5.56422025018882 -0.010817680521233308 0.012976199794963653 -6.7051529109999075 0.04577867638442162 0.012363337685676282 -6.6988827557035595 -0.006920987549488444 -0.004382165717679822 -0.0174838759959034 -0.034144295005018914 0.03349458220331034 8.067179668701788 3.493714625202604 -19.195803454788955 0.029540429114137536 10.433299682886776 0.019517742560292418 -5.585283779443945 -15.680776314257058 3.1704629595591047 -0.015217916882527367 0.037490383180723494 -0.009264468304531898 0.014717451571390294 4.712086906884156 0.01365359047963047 12.45803410392156 -8.204437424475675 6.841469596512976 -0.016782379603377362 46.37691331752588 0.04963325262799882 -4.320371151191174 -14.794761221198188 -3.876434379588387 -0.018722152658968084 0.005315826642222149 -0.0028167771564939323 -0.04953356184760378 -10.752460668250933 0.005156116938855963 
-0.019984700494620294 -0.015242634365765659 0.03497502026304323 0.00032751548352205563 -0.030451013658554568 0.049403761180729644 3.34118943389987 4.367006079276102 -1.865032276686733 -0.8780016116569506 3.578261586332434 0.3464544475407804 -0.6139144075188417 -0.6752768271374288 -0.35924454259575406 -0.2985231638092679 -0.18324905797307645 -0.5328218484258318 -0.575331111033326 11.394666653497836 0.00545598279597778 0.060361566874070766 -0.7873739261406688 0.10733874528765103 0.1254053930559855 -16.778701227896786 0.006801660973640204 -7.287832385945708 2.915562424669834 -16.026661383146795 73.35284534762948 -1.2176509540987732 8.731944484750112 9.699669875539984 3.6126949747410384 87.79541245730105 10.341389891235519 -0.2269204859246481 -2.755877413153287 4.555508174589486 -0.1106858658961312 -1.5937064242204892 0.002391824025252418 -0.004339281718358084 -56.263032512425845 0.036263123191911883 0.011697284266868977 -56.27542007953286 -38.77218578680873 -0.006806647070519072 -0.040924371809371744 0.03965966414470743 0.03232193796161133 0.03589980300663396 -0.019127620838851667 0.011546634310059558 -0.026853101720385793 -36.658683848202095 0.0006481864488471095 0.044743036950805434 0.024560410486085194 0.01955949451043376 0.03374440221195926 -0.019090538924797826 -0.025871403321053265 0.011981590370430653 -19.786308454207216 0.01678062393648234 0.044685600787245185 -0.0001463726794569621 -0.015649309362969464 0.0013735905220495302 0.003694481619017829 -0.035767398188368965 0.022619166073023823 24.085461982630118 -0.018275557049238278 -0.017409721736866644 28.88900772655169 -0.022913841839316173 0.0019906199822549934 28.838411436104217 0.0316779440472572 -0.004609612518964501 8.719890253180383 2.2050142023356716 13.373666381525691 -67.51345600739874 21.975922894402796 -20.909674715427766 -6.010348482903018 -1.4705750979454366 -89.44533643672297 -11.11498030372359 -3.6256585007047404 0.8213617210841577 -0.4473536563295003 0.03588761732648061 -8.14701219950326 -0.04505999562082915 -0.006311410651615775 44.55066162460129 -0.012309412375412483 0.04011283532047483 44.58500421811465 12.47748044247852 0.01688432461022128 0.03945925048359357 0.005717781660608605 0.007473821096613184 0.03662978172077563 -0.03310070651441467 0.005964907978763038 -0.0023113686460428514 11.079239265742519 -0.030659073120191394 -0.0270886676797004 -0.01048240132926678 -0.013426494458747358 0.03526994683867259 0.016059090392695423 -0.037017472304570635 -0.019181686881972373 4.766878368559703 -0.006632172893577525 0.03068656317265034 0.04323908055857285 0.02998644216561802 -0.047536767206348994 -0.018984644731169148 0.0010247826221441174 0.02461499168343546 -5.583651940370973 -0.03083736167803265 0.029192492355609598 -6.7412630795644795 0.027478045281394775 -0.0053636672749423344 -6.676306392468666 0.0223779279735379 0.04225995663536601 -0.042408040394875474 0.01482080949837339 0.0023134072924765416 8.032734137323626 3.480167141036588 -19.209855510094293 -0.04554895934744288 10.440725891288023 -0.029933804465721896 -5.6575458751747 -15.6526968838979 3.2360122986200226 -0.022996450922263354 0.0017872424207035949 0.02813271066992077 0.02725835561600323 4.7061137249808 0.03134439130116693 12.469604246389087 -8.231923068425356 6.903905556590462 -0.006219181399085779 46.36607732788403 0.016132364739062797 -4.2947307585485355 -14.737815454609846 -3.8160698943255813 -0.028778497126018043 -0.01724326857957629 0.022203721230154662 0.019670310361113254 -10.793576961513878 0.0199909995402445 
